<?xml version="1.0" encoding="UTF-8"?>
<svg width="200" height="200" viewBox="0 0 200 200" xmlns="http://www.w3.org/2000/svg">
  <!-- Laurel Wreath -->
  <g fill="#000000">
    <!-- Left Branch -->
    <path d="M60,100 C60,70 80,50 100,40 C90,60 85,80 85,100 C85,120 90,140 100,160 C80,150 60,130 60,100 Z"/>
    <!-- Right Branch -->
    <path d="M140,100 C140,70 120,50 100,40 C110,60 115,80 115,100 C115,120 110,140 100,160 C120,150 140,130 140,100 Z"/>
  </g>
  
  <!-- Graduation Cap -->
  <path d="M100,60 L70,75 L100,90 L130,75 Z" fill="#000000"/>
  <path d="M100,90 L85,82 L85,95 C85,100 90,105 100,105 C110,105 115,100 115,95 L115,82 Z" fill="#000000"/>
  
  <!-- Open Book -->
  <path d="M85,110 C85,105 95,100 100,100 C105,100 115,105 115,110 L115,130 C115,125 105,120 100,120 C95,120 85,125 85,130 Z" fill="#000000"/>
  
  <!-- Star -->
  <path d="M100,30 L105,40 L115,42 L108,50 L110,60 L100,55 L90,60 L92,50 L85,42 L95,40 Z" fill="#000000"/>
  
  <!-- Text "Since 2006" -->
  <text x="100" y="170" text-anchor="middle" font-family="Arial" font-size="12" fill="#000000">Since 2006</text>
  
  <!-- Text "Rise to the Top" -->
  <text x="100" y="185" text-anchor="middle" font-family="Arial" font-size="10" fill="#000000">Rise to the Top</text>
</svg>
